<svg width="650" height="54" viewBox="0 0 650 54" fill="none" xmlns="http://www.w3.org/2000/svg">
            <path d="M38.9173 21.368H33.5413V18.2H48.1813V21.368H42.8053V35H38.9173V21.368ZM61.3448 28.592C61.3448 28.64 61.3208 28.976 61.2728 29.6H51.5048C51.6808 30.4 52.0968 31.032 52.7528 31.496C53.4088 31.96 54.2248 32.192 55.2008 32.192C55.8728 32.192 56.4648 32.096 56.9768 31.904C57.5048 31.696 57.9928 31.376 58.4408 30.944L60.4328 33.104C59.2168 34.496 57.4408 35.192 55.1048 35.192C53.6488 35.192 52.3608 34.912 51.2408 34.352C50.1208 33.776 49.2568 32.984 48.6488 31.976C48.0408 30.968 47.7368 29.824 47.7368 28.544C47.7368 27.28 48.0328 26.144 48.6248 25.136C49.2328 24.112 50.0568 23.32 51.0968 22.76C52.1528 22.184 53.3288 21.896 54.6248 21.896C55.8888 21.896 57.0328 22.168 58.0568 22.712C59.0808 23.256 59.8808 24.04 60.4568 25.064C61.0488 26.072 61.3448 27.248 61.3448 28.592ZM54.6488 24.728C53.8008 24.728 53.0888 24.968 52.5128 25.448C51.9368 25.928 51.5848 26.584 51.4568 27.416H57.8168C57.6888 26.6 57.3368 25.952 56.7608 25.472C56.1848 24.976 55.4808 24.728 54.6488 24.728ZM71.6854 21.896C73.2854 21.896 74.5734 22.376 75.5494 23.336C76.5414 24.296 77.0374 25.72 77.0374 27.608V35H73.2934V28.184C73.2934 27.16 73.0694 26.4 72.6214 25.904C72.1734 25.392 71.5254 25.136 70.6774 25.136C69.7334 25.136 68.9814 25.432 68.4214 26.024C67.8614 26.6 67.5814 27.464 67.5814 28.616V35H63.8374V22.088H67.4134V23.6C67.9094 23.056 68.5254 22.64 69.2614 22.352C69.9974 22.048 70.8054 21.896 71.6854 21.896ZM93.7238 17.192V35H90.1478V33.512C89.2198 34.632 87.8758 35.192 86.1158 35.192C84.8998 35.192 83.7958 34.92 82.8038 34.376C81.8278 33.832 81.0598 33.056 80.4998 32.048C79.9398 31.04 79.6598 29.872 79.6598 28.544C79.6598 27.216 79.9398 26.048 80.4998 25.04C81.0598 24.032 81.8278 23.256 82.8038 22.712C83.7958 22.168 84.8998 21.896 86.1158 21.896C87.7638 21.896 89.0518 22.416 89.9798 23.456V17.192H93.7238ZM86.7638 32.12C87.7078 32.12 88.4918 31.8 89.1158 31.16C89.7398 30.504 90.0518 29.632 90.0518 28.544C90.0518 27.456 89.7398 26.592 89.1158 25.952C88.4918 25.296 87.7078 24.968 86.7638 24.968C85.8038 24.968 85.0118 25.296 84.3878 25.952C83.7638 26.592 83.4518 27.456 83.4518 28.544C83.4518 29.632 83.7638 30.504 84.3878 31.16C85.0118 31.8 85.8038 32.12 86.7638 32.12ZM109.837 28.592C109.837 28.64 109.813 28.976 109.765 29.6H99.9969C100.173 30.4 100.589 31.032 101.245 31.496C101.901 31.96 102.717 32.192 103.693 32.192C104.365 32.192 104.957 32.096 105.469 31.904C105.997 31.696 106.485 31.376 106.933 30.944L108.925 33.104C107.709 34.496 105.933 35.192 103.597 35.192C102.141 35.192 100.853 34.912 99.7329 34.352C98.6129 33.776 97.7489 32.984 97.1409 31.976C96.5329 30.968 96.2289 29.824 96.2289 28.544C96.2289 27.28 96.5249 26.144 97.1169 25.136C97.7249 24.112 98.5489 23.32 99.5889 22.76C100.645 22.184 101.821 21.896 103.117 21.896C104.381 21.896 105.525 22.168 106.549 22.712C107.573 23.256 108.373 24.04 108.949 25.064C109.541 26.072 109.837 27.248 109.837 28.592ZM103.141 24.728C102.293 24.728 101.581 24.968 101.005 25.448C100.429 25.928 100.077 26.584 99.9489 27.416H106.309C106.181 26.6 105.829 25.952 105.253 25.472C104.677 24.976 103.973 24.728 103.141 24.728ZM115.906 23.792C116.354 23.168 116.954 22.696 117.706 22.376C118.474 22.056 119.354 21.896 120.346 21.896V25.352C119.93 25.32 119.65 25.304 119.506 25.304C118.434 25.304 117.594 25.608 116.986 26.216C116.378 26.808 116.074 27.704 116.074 28.904V35H112.33V22.088H115.906V23.792ZM145.134 18.2V35H141.246V28.112H133.614V35H129.726V18.2H133.614V24.824H141.246V18.2H145.134ZM154.053 21.896C156.053 21.896 157.589 22.376 158.661 23.336C159.733 24.28 160.269 25.712 160.269 27.632V35H156.765V33.392C156.061 34.592 154.749 35.192 152.829 35.192C151.837 35.192 150.973 35.024 150.237 34.688C149.517 34.352 148.965 33.888 148.581 33.296C148.197 32.704 148.005 32.032 148.005 31.28C148.005 30.08 148.453 29.136 149.349 28.448C150.261 27.76 151.661 27.416 153.549 27.416H156.525C156.525 26.6 156.277 25.976 155.781 25.544C155.285 25.096 154.541 24.872 153.549 24.872C152.861 24.872 152.181 24.984 151.509 25.208C150.853 25.416 150.293 25.704 149.829 26.072L148.485 23.456C149.189 22.96 150.029 22.576 151.005 22.304C151.997 22.032 153.013 21.896 154.053 21.896ZM153.765 32.672C154.405 32.672 154.973 32.528 155.469 32.24C155.965 31.936 156.317 31.496 156.525 30.92V29.6H153.957C152.421 29.6 151.653 30.104 151.653 31.112C151.653 31.592 151.837 31.976 152.205 32.264C152.589 32.536 153.109 32.672 153.765 32.672ZM170.038 35.192C168.662 35.192 167.422 34.912 166.318 34.352C165.23 33.776 164.374 32.984 163.75 31.976C163.142 30.968 162.838 29.824 162.838 28.544C162.838 27.264 163.142 26.12 163.75 25.112C164.374 24.104 165.23 23.32 166.318 22.76C167.422 22.184 168.662 21.896 170.038 21.896C171.398 21.896 172.582 22.184 173.59 22.76C174.614 23.32 175.358 24.128 175.822 25.184L172.918 26.744C172.246 25.56 171.278 24.968 170.014 24.968C169.038 24.968 168.23 25.288 167.59 25.928C166.95 26.568 166.63 27.44 166.63 28.544C166.63 29.648 166.95 30.52 167.59 31.16C168.23 31.8 169.038 32.12 170.014 32.12C171.294 32.12 172.262 31.528 172.918 30.344L175.822 31.928C175.358 32.952 174.614 33.752 173.59 34.328C172.582 34.904 171.398 35.192 170.038 35.192ZM183.428 29.936L181.628 31.712V35H177.884V17.192H181.628V27.272L187.1 22.088H191.564L186.188 27.56L192.044 35H187.508L183.428 29.936Z" fill="black"></path>
            <path d="M261.872 19.2V36H260.12V28.248H249.608V36H247.832V19.2H249.608V26.688H260.12V19.2H261.872ZM267.135 23.376H268.839V33.408L277.263 23.376H278.775V36H277.071V25.968L268.671 36H267.135V23.376ZM294.722 30.384H291.986V36H290.282V30.384H287.546L283.682 36H281.642L286.178 29.496L282.002 23.376H283.85L287.546 28.92H290.282V23.376H291.986V28.92H294.722L298.442 23.376H300.29L296.114 29.52L300.65 36H298.61L294.722 30.384ZM303.487 23.376H305.191V28.968H313.135V23.376H314.839V36H313.135V30.432H305.191V36H303.487V23.376ZM319.682 23.376H321.386V33.408L329.81 23.376H331.322V36H329.618V25.968L321.218 36H319.682V23.376ZM336.205 23.376H337.909V33.408L346.333 23.376H347.845V36H346.141V25.968L337.741 36H336.205V23.376ZM341.941 21.552C340.853 21.552 339.989 21.28 339.349 20.736C338.709 20.192 338.381 19.424 338.365 18.432H339.589C339.605 19.056 339.829 19.56 340.261 19.944C340.693 20.312 341.253 20.496 341.941 20.496C342.629 20.496 343.189 20.312 343.621 19.944C344.069 19.56 344.301 19.056 344.317 18.432H345.541C345.525 19.424 345.189 20.192 344.533 20.736C343.893 21.28 343.029 21.552 341.941 21.552ZM373.458 19.2V36H371.706V28.248H361.194V36H359.418V19.2H361.194V26.688H371.706V19.2H373.458ZM383.929 36.12C382.713 36.12 381.617 35.848 380.641 35.304C379.665 34.744 378.897 33.976 378.337 33C377.777 32.024 377.497 30.92 377.497 29.688C377.497 28.456 377.777 27.352 378.337 26.376C378.897 25.4 379.665 24.64 380.641 24.096C381.617 23.552 382.713 23.28 383.929 23.28C385.145 23.28 386.241 23.552 387.217 24.096C388.193 24.64 388.953 25.4 389.497 26.376C390.057 27.352 390.337 28.456 390.337 29.688C390.337 30.92 390.057 32.024 389.497 33C388.953 33.976 388.193 34.744 387.217 35.304C386.241 35.848 385.145 36.12 383.929 36.12ZM383.929 34.608C384.825 34.608 385.625 34.408 386.329 34.008C387.049 33.592 387.609 33.008 388.009 32.256C388.409 31.504 388.609 30.648 388.609 29.688C388.609 28.728 388.409 27.872 388.009 27.12C387.609 26.368 387.049 25.792 386.329 25.392C385.625 24.976 384.825 24.768 383.929 24.768C383.033 24.768 382.225 24.976 381.505 25.392C380.801 25.792 380.241 26.368 379.825 27.12C379.425 27.872 379.225 28.728 379.225 29.688C379.225 30.648 379.425 31.504 379.825 32.256C380.241 33.008 380.801 33.592 381.505 34.008C382.225 34.408 383.033 34.608 383.929 34.608ZM402.019 29.472C403.731 29.872 404.587 30.904 404.587 32.568C404.587 33.672 404.179 34.52 403.363 35.112C402.547 35.704 401.331 36 399.715 36H393.979V23.376H399.547C400.987 23.376 402.115 23.656 402.931 24.216C403.747 24.776 404.155 25.576 404.155 26.616C404.155 27.304 403.963 27.896 403.579 28.392C403.211 28.872 402.691 29.232 402.019 29.472ZM395.635 28.992H399.427C400.403 28.992 401.147 28.808 401.659 28.44C402.187 28.072 402.451 27.536 402.451 26.832C402.451 26.128 402.187 25.6 401.659 25.248C401.147 24.896 400.403 24.72 399.427 24.72H395.635V28.992ZM399.643 34.656C400.731 34.656 401.547 34.48 402.091 34.128C402.635 33.776 402.907 33.224 402.907 32.472C402.907 31.72 402.659 31.168 402.163 30.816C401.667 30.448 400.883 30.264 399.811 30.264H395.635V34.656H399.643ZM417.508 24.888H410.284V36H408.58V23.376H417.508V24.888ZM424.593 36.12C423.377 36.12 422.281 35.848 421.305 35.304C420.329 34.744 419.561 33.976 419.001 33C418.441 32.024 418.161 30.92 418.161 29.688C418.161 28.456 418.441 27.352 419.001 26.376C419.561 25.4 420.329 24.64 421.305 24.096C422.281 23.552 423.377 23.28 424.593 23.28C425.809 23.28 426.905 23.552 427.881 24.096C428.857 24.64 429.617 25.4 430.161 26.376C430.721 27.352 431.001 28.456 431.001 29.688C431.001 30.92 430.721 32.024 430.161 33C429.617 33.976 428.857 34.744 427.881 35.304C426.905 35.848 425.809 36.12 424.593 36.12ZM424.593 34.608C425.489 34.608 426.289 34.408 426.993 34.008C427.713 33.592 428.273 33.008 428.673 32.256C429.073 31.504 429.273 30.648 429.273 29.688C429.273 28.728 429.073 27.872 428.673 27.12C428.273 26.368 427.713 25.792 426.993 25.392C426.289 24.976 425.489 24.768 424.593 24.768C423.697 24.768 422.889 24.976 422.169 25.392C421.465 25.792 420.905 26.368 420.489 27.12C420.089 27.872 419.889 28.728 419.889 29.688C419.889 30.648 420.089 31.504 420.489 32.256C420.905 33.008 421.465 33.592 422.169 34.008C422.889 34.408 423.697 34.608 424.593 34.608ZM441.147 23.28C442.331 23.28 443.403 23.552 444.363 24.096C445.323 24.624 446.075 25.376 446.619 26.352C447.163 27.328 447.435 28.44 447.435 29.688C447.435 30.952 447.163 32.072 446.619 33.048C446.075 34.024 445.323 34.784 444.363 35.328C443.419 35.856 442.347 36.12 441.147 36.12C440.123 36.12 439.195 35.912 438.363 35.496C437.547 35.064 436.875 34.44 436.347 33.624V40.656H434.643V23.376H436.275V25.872C436.787 25.04 437.459 24.4 438.291 23.952C439.139 23.504 440.091 23.28 441.147 23.28ZM441.027 34.608C441.907 34.608 442.707 34.408 443.427 34.008C444.147 33.592 444.707 33.008 445.107 32.256C445.523 31.504 445.731 30.648 445.731 29.688C445.731 28.728 445.523 27.88 445.107 27.144C444.707 26.392 444.147 25.808 443.427 25.392C442.707 24.976 441.907 24.768 441.027 24.768C440.131 24.768 439.323 24.976 438.603 25.392C437.899 25.808 437.339 26.392 436.923 27.144C436.523 27.88 436.323 28.728 436.323 29.688C436.323 30.648 436.523 31.504 436.923 32.256C437.339 33.008 437.899 33.592 438.603 34.008C439.323 34.408 440.131 34.608 441.027 34.608ZM456.304 36.12C455.088 36.12 453.992 35.848 453.016 35.304C452.04 34.744 451.272 33.976 450.712 33C450.152 32.024 449.872 30.92 449.872 29.688C449.872 28.456 450.152 27.352 450.712 26.376C451.272 25.4 452.04 24.64 453.016 24.096C453.992 23.552 455.088 23.28 456.304 23.28C457.52 23.28 458.616 23.552 459.592 24.096C460.568 24.64 461.328 25.4 461.872 26.376C462.432 27.352 462.712 28.456 462.712 29.688C462.712 30.92 462.432 32.024 461.872 33C461.328 33.976 460.568 34.744 459.592 35.304C458.616 35.848 457.52 36.12 456.304 36.12ZM456.304 34.608C457.2 34.608 458 34.408 458.704 34.008C459.424 33.592 459.984 33.008 460.384 32.256C460.784 31.504 460.984 30.648 460.984 29.688C460.984 28.728 460.784 27.872 460.384 27.12C459.984 26.368 459.424 25.792 458.704 25.392C458 24.976 457.2 24.768 456.304 24.768C455.408 24.768 454.6 24.976 453.88 25.392C453.176 25.792 452.616 26.368 452.2 27.12C451.8 27.872 451.6 28.728 451.6 29.688C451.6 30.648 451.8 31.504 452.2 32.256C452.616 33.008 453.176 33.592 453.88 34.008C454.6 34.408 455.408 34.608 456.304 34.608ZM478.595 34.512V39.048H476.987V36H465.683V39.048H464.075V34.512H464.795C465.643 34.464 466.219 33.84 466.523 32.64C466.827 31.44 467.035 29.76 467.147 27.6L467.315 23.376H476.627V34.512H478.595ZM468.707 27.696C468.627 29.488 468.475 30.968 468.251 32.136C468.027 33.288 467.627 34.08 467.051 34.512H474.923V24.888H468.851L468.707 27.696Z" fill="black"></path>
            <path d="M20 54L20 46.0009C20 36.7586 16.8627 30.8558 12.6314 26.501C16.8627 22.1462 20 16.1955 20 7.00114L20 0L7.36863 -5.52135e-07L7.36863 6.99914C7.36863 16.1935 4.23133 22.1442 7.4904e-07 26.499C4.23133 30.8538 7.36862 36.7566 7.36862 45.9989L7.36862 53.998L20 53.998L20 54Z" fill="url(#paint0_linear_1904_8)"></path>
            <path d="M205 0L205 7.99914C205 17.2414 208.137 23.1442 212.369 27.499C208.137 31.8538 205 37.8045 205 46.9989L205 54L217.631 54L217.631 47.0009C217.631 37.8065 220.769 31.8558 225 27.501C220.769 23.1462 217.631 17.2434 217.631 8.00114L217.631 0.00199453L205 0.00199509L205 0Z" fill="url(#paint1_linear_1904_8)"></path>
            <defs>
            <linearGradient id="paint0_linear_1904_8" x1="-23.032" y1="31.9276" x2="53.9521" y2="95.3031" gradientUnits="userSpaceOnUse">
            <stop stop-color="#00B9FF"></stop>
            <stop offset="0.2124" stop-color="#3982F5"></stop>
            <stop offset="0.5" stop-color="#8C32E6"></stop>
            <stop offset="0.5867" stop-color="#A029BF"></stop>
            <stop offset="0.7273" stop-color="#BD1B87"></stop>
            <stop offset="0.848" stop-color="#D3115E"></stop>
            <stop offset="0.9428" stop-color="#E00A44"></stop>
            <stop offset="1" stop-color="#E5083B"></stop>
            </linearGradient>
            <linearGradient id="paint1_linear_1904_8" x1="260" y1="64" x2="203.656" y2="-7.44036" gradientUnits="userSpaceOnUse">
            <stop stop-color="#00B9FF"></stop>
            <stop offset="0.2124" stop-color="#3982F5"></stop>
            <stop offset="0.5" stop-color="#8C32E6"></stop>
            <stop offset="0.5867" stop-color="#A029BF"></stop>
            <stop offset="0.7273" stop-color="#BD1B87"></stop>
            <stop offset="0.848" stop-color="#D3115E"></stop>
            <stop offset="0.9428" stop-color="#E00A44"></stop>
            <stop offset="1" stop-color="#E5083B"></stop>
            </linearGradient>
            </defs>
            </svg>